<?xml version="1.0" encoding="UTF-8" standalone="no"?>
<svg
   xmlns:dc="http://purl.org/dc/elements/1.1/"
   xmlns:cc="http://creativecommons.org/ns#"
   xmlns:rdf="http://www.w3.org/1999/02/22-rdf-syntax-ns#"
   xmlns:svg="http://www.w3.org/2000/svg"
   xmlns="http://www.w3.org/2000/svg"
   xmlns:xlink="http://www.w3.org/1999/xlink"
   xmlns:sodipodi="http://sodipodi.sourceforge.net/DTD/sodipodi-0.dtd"
   xmlns:inkscape="http://www.inkscape.org/namespaces/inkscape"
   width="96"
   height="96"
   id="svg4874"
   version="1.1"
   inkscape:version="1.0.1 (c497b03c, 2020-09-10)"
   viewBox="0 0 96 96.000001"
   sodipodi:docname="oostkantons.svg">
  <defs
     id="defs4876" />
  <sodipodi:namedview
     id="base"
     pagecolor="#ffffff"
     bordercolor="#666666"
     borderopacity="1.0"
     inkscape:pageopacity="0.0"
     inkscape:pageshadow="2"
     inkscape:zoom="3.1077416"
     inkscape:cx="-0.91542276"
     inkscape:cy="25.381758"
     inkscape:document-units="px"
     inkscape:current-layer="g4780"
     showgrid="true"
     showborder="true"
     fit-margin-top="0"
     fit-margin-left="0"
     fit-margin-right="0"
     fit-margin-bottom="0"
     inkscape:snap-bbox="true"
     inkscape:bbox-paths="true"
     inkscape:bbox-nodes="true"
     inkscape:snap-bbox-edge-midpoints="true"
     inkscape:snap-bbox-midpoints="true"
     inkscape:object-paths="true"
     inkscape:snap-intersection-paths="true"
     inkscape:object-nodes="true"
     inkscape:snap-smooth-nodes="true"
     inkscape:snap-midpoints="true"
     inkscape:snap-object-midpoints="true"
     inkscape:snap-center="true"
     showguides="true"
     inkscape:guide-bbox="true"
     inkscape:snap-global="true"
     inkscape:window-width="1680"
     inkscape:window-height="997"
     inkscape:window-x="0"
     inkscape:window-y="25"
     inkscape:window-maximized="1"
     inkscape:document-rotation="0">
    <inkscape:grid
       type="xygrid"
       id="grid5451"
       empspacing="8" />
    <sodipodi:guide
       orientation="1,0"
       position="8,-8.0000001"
       id="guide4063"
       inkscape:locked="false" />
    <sodipodi:guide
       orientation="1,0"
       position="4,-8.0000001"
       id="guide4065"
       inkscape:locked="false" />
    <sodipodi:guide
       orientation="0,1"
       position="-8,88.000001"
       id="guide4067"
       inkscape:locked="false" />
    <sodipodi:guide
       orientation="0,1"
       position="-8,92.000001"
       id="guide4069"
       inkscape:locked="false" />
    <sodipodi:guide
       orientation="0,1"
       position="104,4"
       id="guide4071"
       inkscape:locked="false" />
    <sodipodi:guide
       orientation="0,1"
       position="-5,8.0000001"
       id="guide4073"
       inkscape:locked="false" />
    <sodipodi:guide
       orientation="1,0"
       position="92,-8.0000001"
       id="guide4075"
       inkscape:locked="false" />
    <sodipodi:guide
       orientation="1,0"
       position="88,-8.0000001"
       id="guide4077"
       inkscape:locked="false" />
    <sodipodi:guide
       orientation="0,1"
       position="-8,84.000001"
       id="guide4074"
       inkscape:locked="false" />
    <sodipodi:guide
       orientation="1,0"
       position="12,-8.0000001"
       id="guide4076"
       inkscape:locked="false" />
    <sodipodi:guide
       orientation="1,0"
       position="84,-9.0000001"
       id="guide4080"
       inkscape:locked="false" />
    <sodipodi:guide
       position="48,-8.0000001"
       orientation="1,0"
       id="guide4170"
       inkscape:locked="false" />
    <sodipodi:guide
       position="-8,48"
       orientation="0,1"
       id="guide4172"
       inkscape:locked="false" />
  </sodipodi:namedview>
  <metadata
     id="metadata4879">
    <rdf:RDF>
      <cc:Work
         rdf:about="">
        <dc:format>image/svg+xml</dc:format>
        <dc:type
           rdf:resource="http://purl.org/dc/dcmitype/StillImage" />
        <dc:title />
      </cc:Work>
    </rdf:RDF>
  </metadata>
  <g
     inkscape:label="Layer 1"
     inkscape:groupmode="layer"
     id="layer1"
     transform="translate(67.857146,-78.50504)">
    <g
       transform="matrix(0,-1,-1,0,373.50506,516.50504)"
       id="g4845"
       style="display:inline">
      <g
         inkscape:export-ydpi="90"
         inkscape:export-xdpi="90"
         inkscape:export-filename="next01.png"
         transform="matrix(-0.9996045,0,0,1,575.94296,-611.00001)"
         id="g4778"
         inkscape:label="Layer 1">
        <g
           transform="matrix(-1,0,0,1,575.99999,611)"
           id="g4780"
           style="display:inline">
          <g
             id="g1482"
             transform="matrix(0,-0.26666667,-0.26677218,0,421.99612,441.36222)"
             style="display:inline">
            <rect
               height="240"
               width="360"
               style="fill:#ffffff"
               id="rect1420"
               x="0"
               y="0" />
            <g
               style="fill:#d40000"
               transform="translate(-146.30972,-260.36909)"
               id="g1438">
              <path
                 d="m 357.15625,312.71875 c 0,0 0.12798,0.71463 0.125,1.8125 0.79735,-0.98101 -0.125,-1.8125 -0.125,-1.8125 z m 0.125,1.8125 c -1.09449,1.34659 -5.45509,2.98088 -20.125,3.1875 -25.35715,0.35715 -10.71874,18.93751 -10.71875,18.9375 12.85714,-11.42858 5.00001,11.06249 5,11.0625 C 312.86607,333.43304 298.21875,352 298.21875,352 294.29017,353.07143 292.5,349.875 292.5,349.875 292.85714,330.58929 275.34374,342 275.34375,342 c -10,10 2.15625,15.375 2.15625,15.375 3.57143,8.57143 8.56249,4.625 8.5625,4.625 2.85714,4.28571 12.15625,2.15626 12.15625,2.15625 -1.78572,3.21428 -18.56249,13.90624 -18.5625,13.90625 -17.85715,0.71428 -13.9375,10.37499 -13.9375,10.375 -0.35715,14.64286 11.43751,11.4375 11.4375,11.4375 4.28571,-1.07143 13.90624,-8.93751 13.90625,-8.9375 -0.71429,-2.5 -10e-6,-3.9375 0,-3.9375 1.07143,2.85714 2.49999,2.15626 2.5,2.15625 l 7.15625,-4.28125 c -0.35715,-2.14286 0,-3.93751 0,-3.9375 0,1.07143 2.12499,2.84376 2.125,2.84375 2.85715,-1.42857 6.4375,-2.84376 6.4375,-2.84375 0,-3.92857 2.15626,-3.5625 2.15625,-3.5625 0,2.5 0.71876,2.125 0.71875,2.125 3.57143,-1.78572 7.84375,-0.71874 7.84375,-0.71875 1.07143,-5.35714 2.84374,-3.90625 2.84375,-3.90625 -0.35714,1.78572 1.4375,3.18749 1.4375,3.1875 3.21429,0 7.15626,-1.0625 7.15625,-1.0625 1.42857,-3.21429 0.71876,-4.28126 0.71875,-4.28125 2.14285,1.42858 1.40624,3.56251 1.40625,3.5625 3.21428,0.71429 9.28124,-0.71876 9.28125,-0.71875 1.07143,-2.85715 -0.68749,-6.0625 -0.6875,-6.0625 4.64285,1.78571 4.625,4.65626 4.625,4.65625 0.35715,-15 6.4375,-35.37499 6.4375,-35.375 -2.5,2.14286 -2.87501,-0.71876 -2.875,-0.71875 6.07143,-5.35715 4.31251,-12.12501 4.3125,-12.125 -2.14286,1.42857 -2.49999,-10e-6 -2.5,0 4.4292,-4.4292 5.11839,-8.97414 5.125,-11.40625 z m -20.125,6.40625 c 6.78571,0 5.34375,5.34376 5.34375,5.34375 -4.64286,-1.07143 -5.34374,-5.34376 -5.34375,-5.34375 z"
                 id="path1422" />
              <path
                 d="m 331.07143,345.21932 c -3.57143,-8.57142 -10,-9.64285 -15.71429,-13.92857 -5.71428,-4.28571 -11.42857,-13.21428 1.07143,-13.57143 0,0 -11.42857,-14.28571 -16.78571,5.71429 -1.07143,14.64286 25,12.5 31.42857,21.78571 z"
                 id="path1424" />
              <path
                 d="m 264.28571,398.07647 c 0,0 -2.85714,-11.78572 0.71429,-17.85715 l -7.14286,-3.21428 2.5,7.14286 -5,4.28571 5.35715,4.64286 -3.92858,6.07143 z"
                 id="path1426" />
              <path
                 d="m 269.28571,345.93361 c 0,0 2.85715,-9.28571 18.21429,-10.35714 l -1.42857,-8.92857 -5.35714,5.71428 -4.64286,-4.28571 -2.85714,9.28571 -5,-2.14286 z"
                 id="path1428" />
              <path
                 d="m 343.57143,377.71932 -0.35714,10.71429 3.21428,3.21429 v 0 c 5,-6.07143 35.71429,-20.35715 39.28572,-26.42858 3.57142,-6.07142 10.71428,-19.28571 0.71428,-23.92857 -10,-4.64285 -11.07143,13.92857 1.07143,11.07143 0,0 -8.21429,16.07143 -11.42857,5.71429 0,0 -2.5,2.85714 0,7.14285 0,0 -11.42857,14.64286 -10.35714,0.71429 0,0 -2.5,0.35714 -2.85715,6.42857 0,0 -5.71428,8.57143 -12.5,10 5.71429,-8.21428 8.21429,-46.78571 28.21429,-48.92857 20,-2.14286 28.57143,21.07143 5,42.85714 -8.57143,5 -27.14286,11.42857 -31.07143,22.14286 0,0 10.35714,12.85714 29.28571,-12.85714 l 0.35715,17.85714 c 0,0 -1.42857,2.85714 -5,5 0,0 0.35714,4.64286 6.42857,-1.42857 0,0 1.42857,8.92857 -6.78572,13.21428 l 3.57143,0.71429 c 0,0 -1.42857,6.07143 -5,10 0,0 -3.92857,0.35714 -5.35714,0.35714 0,0 8.21429,0 -2.14286,10.35715 0,0 -15.35714,13.21428 -23.92857,2.5 0,0 -3.21428,-14.28572 8.92857,-14.64286 l -0.71428,-6.42857 c 0,0 -16.42857,11.42857 -20.71429,-8.57143 0,0 -2.5,-26.78572 -12.14286,-32.85714 z"
                 id="path1430" />
              <path
                 d="m 327.85714,410.21932 c 0,0 0.35715,-13.21428 -7.5,-21.42857 0,0 1.07143,5.71429 1.78572,11.07143 0,0 -29.64286,-18.92857 -38.57143,8.57143 0,0 -2.5,14.28571 13.92857,15.35714 l 0.35714,3.57143 c 0,0 -22.5,5.35714 -5.35714,18.21429 0,0 14.28571,1.42857 20.35714,-5.71429 0,0 1.07143,-1.78571 -1.07143,-2.85714 0,0 1.78572,-1.07143 3.92858,1.07143 0,0 4.64285,-1.07143 6.42857,-4.28572 0,0 0,-2.14285 -3.57143,-4.64285 0,0 8.21428,3.21428 8.57143,-14.28572 0,0 -5.71429,12.85714 -12.5,4.64286 0,0 -5,-8.92857 13.21428,-9.28572 z"
                 id="path1432" />
              <path
                 d="m 350.71429,450.93361 c 0,0 -8.57143,0.35714 -10.35715,-15.35714 l -6.42857,1.78571 5.71429,6.07143 -3.21429,4.64286 7.5,1.42857 v 6.78571 z"
                 id="path1434" />
              <path
                 d="m 285,442.00504 c 0,0 -2.85714,-11.78572 6.42857,-15.35714 l -6.78571,-3.21429 0.35714,4.64286 -6.42857,0.35714 3.57143,5 -5.71429,4.64286 z"
                 id="path1436" />
            </g>
            <path
               id="Flower"
               transform="matrix(0.01805,0,0,-0.01805,180,31.2)"
               style="fill:#318ecc"
               d="m -910.204,295.743 c 113.144,79.936 143.584,101.478 213.889,159.832 218.769,207.486 241.163,-33.521 403.672,-199.994 38.803,44.751 85.451,78.644 140.003,101.718 C -260.748,563.297 -483.039,659.07 -218.105,803.016 -140.882,851.847 -110.986,874.14 0,957.045 110.986,874.14 140.882,851.847 218.105,803.016 483.039,659.07 260.748,563.297 152.64,357.299 207.192,334.225 253.84,300.332 292.643,255.581 455.152,422.054 477.546,663.061 696.315,455.575 766.62,397.221 797.06,375.679 910.204,295.743 865.654,164.57 853.689,129.249 831.111,40.7157 776.08,-255.734 616.303,-73.9173 386.98,-34.758 c -5.088,-59.0119 -22.906,-113.851 -53.476,-164.583 208.543,-103.112 444.674,-49.934 314.947,-322.114 -33.773,-84.896 -44.855,-120.503 -85.914,-252.81 -138.52,1.835 -175.809,2.299 -266.987,-3.587 -298.94531,-39.27 -175.402,168.872 -209.0237,399.072 -57.6957,-13.398 -115.3569,-13.398 -173.0526,0 -33.6217,-230.2 89.92161,-438.342 -209.0237,-399.072 -91.178,5.886 -128.467,5.422 -266.987,3.587 -41.059,132.307 -52.141,167.914 -85.914,252.81 -129.727,272.18 106.404,219.002 314.947,322.114 -30.57,50.732 -48.388,105.5711 -53.476,164.583 -229.323,-39.1593 -389.1,-220.976 -444.131,75.4737 -22.578,88.5333 -34.543,123.8543 -79.093,255.0273 z M -180,0 a 180,180 0 0 1 360,0 180,180 0 0 1 -360,0 z" />
            <use
               transform="rotate(40,180,123)"
               xlink:href="#Flower"
               id="use1441"
               x="0"
               y="0"
               width="100%"
               height="100%" />
            <use
               transform="rotate(80,180,123)"
               xlink:href="#Flower"
               id="use1443"
               x="0"
               y="0"
               width="100%"
               height="100%" />
            <use
               transform="rotate(120,180,123)"
               xlink:href="#Flower"
               id="use1445"
               x="0"
               y="0"
               width="100%"
               height="100%" />
            <use
               transform="rotate(160,180,123)"
               xlink:href="#Flower"
               id="use1447"
               x="0"
               y="0"
               width="100%"
               height="100%" />
            <use
               transform="rotate(-160,180,123)"
               xlink:href="#Flower"
               id="use1449"
               x="0"
               y="0"
               width="100%"
               height="100%" />
            <use
               transform="rotate(-120,180,123)"
               xlink:href="#Flower"
               id="use1451"
               x="0"
               y="0"
               width="100%"
               height="100%" />
            <use
               transform="rotate(-80,180,123)"
               xlink:href="#Flower"
               id="use1453"
               x="0"
               y="0"
               width="100%"
               height="100%" />
            <use
               transform="rotate(-40,180,123)"
               xlink:href="#Flower"
               id="use1455"
               x="0"
               y="0"
               width="100%"
               height="100%" />
          </g>
          <rect
             style="fill:none;stroke:#000000;stroke-width:0.37802752;stroke-miterlimit:4;stroke-dasharray:none;stroke-opacity:1"
             id="rect1572"
             width="95.012665"
             height="63.037979"
             x="-440.86856"
             y="-421.50244"
             transform="matrix(0,-1,-1,0,0,0)" />
        </g>
      </g>
    </g>
  </g>
</svg>
